<svg width="470" height="642" viewBox="0 0 470 642" fill="none" xmlns="http://www.w3.org/2000/svg">
<rect opacity="0.12" x="57.963" y="534.148" width="604.302" height="2" transform="rotate(-36.6749 57.963 534.148)" fill="url(#paint0_linear_1736_269)"/>
<rect opacity="0.12" x="57.963" y="361.487" width="604.302" height="2" transform="rotate(-36.6749 57.963 361.487)" fill="url(#paint1_linear_1736_269)"/>
<rect opacity="0.12" x="57.963" y="625.058" width="604.302" height="2" transform="rotate(-36.6749 57.963 625.058)" fill="url(#paint2_linear_1736_269)"/>
<rect opacity="0.12" x="57.963" y="452.397" width="604.302" height="2" transform="rotate(-36.6749 57.963 452.397)" fill="url(#paint3_linear_1736_269)"/>
<rect opacity="0.12" x="0.110046" y="624.933" width="604.302" height="2" transform="rotate(-36.6749 0.110046 624.933)" fill="url(#paint4_linear_1736_269)"/>
<rect opacity="0.12" x="0.110046" y="452.271" width="604.302" height="2" transform="rotate(-36.6749 0.110046 452.271)" fill="url(#paint5_linear_1736_269)"/>
<rect opacity="0.12" x="95.3449" y="639.934" width="604.302" height="2" transform="rotate(-36.6749 95.3449 639.934)" fill="url(#paint6_linear_1736_269)"/>
<rect opacity="0.12" x="0.110046" y="543.182" width="604.302" height="2" transform="rotate(-36.6749 0.110046 543.182)" fill="url(#paint7_linear_1736_269)"/>
<defs>
<linearGradient id="paint0_linear_1736_269" x1="50.3082" y1="533.868" x2="540.725" y2="541.285" gradientUnits="userSpaceOnUse">
<stop stop-color="#F68A0A" stop-opacity="0"/>
<stop offset="1" stop-color="#F68A0A"/>
</linearGradient>
<linearGradient id="paint1_linear_1736_269" x1="50.3082" y1="361.207" x2="540.725" y2="368.624" gradientUnits="userSpaceOnUse">
<stop stop-color="#F68A0A" stop-opacity="0"/>
<stop offset="1" stop-color="#F68A0A"/>
</linearGradient>
<linearGradient id="paint2_linear_1736_269" x1="50.3082" y1="624.778" x2="540.725" y2="632.195" gradientUnits="userSpaceOnUse">
<stop stop-color="#F68A0A" stop-opacity="0"/>
<stop offset="1" stop-color="#F68A0A"/>
</linearGradient>
<linearGradient id="paint3_linear_1736_269" x1="50.3082" y1="452.117" x2="540.725" y2="459.534" gradientUnits="userSpaceOnUse">
<stop stop-color="#F68A0A" stop-opacity="0"/>
<stop offset="1" stop-color="#F68A0A"/>
</linearGradient>
<linearGradient id="paint4_linear_1736_269" x1="-7.54467" y1="624.653" x2="482.872" y2="632.07" gradientUnits="userSpaceOnUse">
<stop stop-color="#F68A0A" stop-opacity="0"/>
<stop offset="1" stop-color="#F68A0A"/>
</linearGradient>
<linearGradient id="paint5_linear_1736_269" x1="-7.54467" y1="451.991" x2="482.872" y2="459.408" gradientUnits="userSpaceOnUse">
<stop stop-color="#F68A0A" stop-opacity="0"/>
<stop offset="1" stop-color="#F68A0A"/>
</linearGradient>
<linearGradient id="paint6_linear_1736_269" x1="87.6902" y1="639.654" x2="578.107" y2="647.071" gradientUnits="userSpaceOnUse">
<stop stop-color="#F68A0A" stop-opacity="0"/>
<stop offset="1" stop-color="#F68A0A"/>
</linearGradient>
<linearGradient id="paint7_linear_1736_269" x1="-7.54467" y1="542.902" x2="482.872" y2="550.318" gradientUnits="userSpaceOnUse">
<stop stop-color="#F68A0A" stop-opacity="0"/>
<stop offset="1" stop-color="#F68A0A"/>
</linearGradient>
</defs>
</svg>
