<svg width="76" height="76" viewBox="0 0 76 76" fill="none" xmlns="http://www.w3.org/2000/svg">
<g clip-path="url(#clip0_1736_169)">
<path fill-rule="evenodd" clip-rule="evenodd" d="M37.8163 71.4097C56.4559 71.4097 71.5664 56.2997 71.5664 37.6597C71.5664 19.0201 56.4563 3.90959 37.8163 3.90959C19.1767 3.90959 4.0662 19.0201 4.0662 37.6597C4.0662 56.2993 19.1767 71.4097 37.8163 71.4097ZM37.8163 75.1597C58.5267 75.1597 75.3163 58.3701 75.3163 37.6597C75.3163 16.9488 58.5267 0.159668 37.8163 0.159668C17.1054 0.159668 0.316284 16.9488 0.316284 37.6597C0.316284 58.3701 17.1054 75.1597 37.8163 75.1597Z" fill="white"/>
<path fill-rule="evenodd" clip-rule="evenodd" d="M37.8163 71.4097C56.4559 71.4097 71.5664 56.2996 71.5664 37.6597C71.5664 19.0201 56.4563 3.90959 37.8163 3.90959C19.1767 3.90959 4.0662 19.0201 4.0662 37.6597C4.0662 56.2993 19.1767 71.4097 37.8163 71.4097ZM37.8163 75.1597C58.5267 75.1597 75.3163 58.3701 75.3163 37.6597C75.3163 16.9488 58.5267 0.159668 37.8163 0.159668C17.1054 0.159668 0.316284 16.9488 0.316284 37.6597C0.316284 58.3701 17.1054 75.1597 37.8163 75.1597Z" fill="white"/>
<path fill-rule="evenodd" clip-rule="evenodd" d="M47.5607 37.6597L30.316 26.1634V49.1564L47.5607 37.6597ZM51.0447 35.4756C52.6035 36.5148 52.6035 38.8049 51.0447 39.8441L30.6469 53.4429C28.9025 54.6059 26.5657 53.355 26.5657 51.2585V24.0613C26.5657 21.9647 28.9025 20.7142 30.6469 21.8772L51.0447 35.4756Z" fill="white"/>
</g>
<defs>
<clipPath id="clip0_1736_169">
<rect width="75" height="75" fill="white" transform="translate(0.316284 0.159668)"/>
</clipPath>
</defs>
</svg>
