<svg width="76" height="76" viewBox="0 0 76 76" fill="none" xmlns="http://www.w3.org/2000/svg">
<g clip-path="url(#clip0_1736_95)">
<path fill-rule="evenodd" clip-rule="evenodd" d="M38 72.1915C56.6396 72.1915 71.7501 57.0814 71.7501 38.4414C71.7501 19.8018 56.64 4.69133 38 4.69133C19.3604 4.69133 4.24992 19.8018 4.24992 38.4414C4.24992 57.081 19.3604 72.1915 38 72.1915ZM38 75.9414C58.7104 75.9414 75.5 59.1518 75.5 38.4414C75.5 17.7306 58.7104 0.941406 38 0.941406C17.2892 0.941406 0.5 17.7306 0.5 38.4414C0.5 59.1518 17.2892 75.9414 38 75.9414Z" fill="#101010"/>
<path fill-rule="evenodd" clip-rule="evenodd" d="M38 72.1915C56.6396 72.1915 71.7501 57.0814 71.7501 38.4414C71.7501 19.8018 56.64 4.69133 38 4.69133C19.3604 4.69133 4.24992 19.8018 4.24992 38.4414C4.24992 57.081 19.3604 72.1915 38 72.1915ZM38 75.9414C58.7104 75.9414 75.5 59.1518 75.5 38.4414C75.5 17.7306 58.7104 0.941406 38 0.941406C17.2892 0.941406 0.5 17.7306 0.5 38.4414C0.5 59.1518 17.2892 75.9414 38 75.9414Z" fill="#101010"/>
<path fill-rule="evenodd" clip-rule="evenodd" d="M47.7444 38.4414L30.4998 26.9451V49.9381L47.7444 38.4414ZM51.2284 36.2574C52.7872 37.2965 52.7872 39.5866 51.2284 40.6258L30.8306 54.2246C29.0862 55.3877 26.7495 54.1368 26.7495 52.0402V24.843C26.7495 22.7464 29.0862 21.4959 30.8306 22.659L51.2284 36.2574Z" fill="#101010"/>
</g>
<defs>
<clipPath id="clip0_1736_95">
<rect width="75" height="75" fill="white" transform="translate(0.5 0.941406)"/>
</clipPath>
</defs>
</svg>
