<svg width="204" height="91" viewBox="0 0 204 91" fill="none" xmlns="http://www.w3.org/2000/svg">
<path opacity="0.5" d="M67.0734 24.9776V25.3531L67.4428 25.4195L94.1298 30.2224L94.6583 30.3175V29.7805V2.75987V2.22282L94.1298 2.31798L67.4428 7.12256L67.0734 7.18908V7.56446V24.9776ZM41.0372 79.7794V80.2284H41.4862H54.6549H55.1039V79.7794V39.6908V38.8483L54.4046 39.3181L41.2358 48.1651L41.0372 48.2985V48.5378V79.7794ZM84.1284 81.3884L84.128 80.9399H83.6794H31.0398H30.903L30.7894 81.0162L19.6745 88.4834L18.4514 89.3051H19.9249H83.687H84.1365L84.136 88.8556L84.1284 81.3884ZM120.806 57.2004L120.803 56.6662L120.277 56.7608L85.9956 62.9298L85.6261 62.9963V63.3717V88.8561V89.3051H86.0751H120.516H120.968L120.965 88.8538L120.806 57.2004ZM56.6118 47.3877V47.7631L56.9813 47.8296L76.7338 51.3834L76.6713 79.7767L76.6704 80.2267H77.1203H83.6794H84.1284V79.7777V62.5153L106.002 58.5769L106.371 58.5104V58.135V33.5609V33.1855L106.001 33.119L57.1403 24.3231L56.6118 24.2279V24.765V47.3877ZM153.328 38.2481V37.9253L153.022 37.8225L132.927 31.0716L132.335 30.8727V31.4972V88.851V89.3H132.784H152.879H153.328V88.851V38.2481ZM155.274 82.5443H154.825V82.9933V88.851V89.3H155.274H179.505H180.978L179.755 88.4783L171.036 82.6206L170.923 82.5443H170.786H155.274ZM55.1242 37.4127V23.2076L65.0573 24.9942L65.5858 25.0893V24.5523V6.7063C75.7777 4.86954 85.9711 3.03491 96.1662 1.20242V12.2499V12.6252L96.5355 12.6918L113.908 15.8254L113.891 56.6598L113.891 57.197L114.419 57.1018L120.439 56.0181L120.808 55.9516V55.5762V46.1774L130.47 44.4371L130.84 44.3706V43.9952V29.5305L154.828 37.5876V81.3889V81.8379H155.277H171.644L182.646 89.2288L182.759 89.3051H182.896H203.466V90.0165H1.28421V89.3H16.539H16.6758L16.7893 89.2237L30.1864 80.2233H39.0981H39.5471V79.7743V48.1169L54.9256 37.7854L55.1242 37.652V37.4127Z" stroke="#535353" stroke-width="0.898"/>
</svg>
