<svg width="167" height="91" viewBox="0 0 167 91" fill="none" xmlns="http://www.w3.org/2000/svg">
<g opacity="0.5">
<mask id="path-1-inside-1_788_131" fill="white">
<path fill-rule="evenodd" clip-rule="evenodd" d="M26.992 71.4945V66.0817L17.2445 64.4884V70.3691L26.992 71.4945ZM28.5747 71.675L39.8923 72.9808V68.1872L28.5747 66.337V71.675ZM41.4574 34.739L83.7494 11.898L126.132 34.7895V32.4959L120.434 29.4195V26.7283L83.7342 6.91478L79.8367 9.01876V11.7114L41.4447 32.447L41.4574 34.739ZM39.8923 78.9288V73.9456L28.5747 72.6398V78.2698L39.8923 78.9288ZM17.2572 77.6169L27.0046 78.1826V72.4578L17.2572 71.3324V77.6169ZM140.588 69.7116V76.1444L150.338 75.5786V68.5832L140.588 69.7116ZM127.705 71.1994V76.889L139.018 76.2315V69.889L127.705 71.1994ZM140.588 63.3339V68.7468L150.338 67.6214V61.7361L140.588 63.3339ZM127.705 65.4395V70.2346L138.99 68.9227V63.5878L127.705 65.4395ZM84.5673 75.2101L126.117 70.4135V65.6933L84.5673 72.4823V75.2101ZM84.5673 76.1734V79.3845L126.117 76.9731V71.3768L84.5673 76.1734ZM83.8987 22.7895L126.117 45.5908V43.2972L114.232 36.8751V34.1855L83.7342 17.7145L79.8367 19.82V22.5112C67.0275 29.4133 54.2302 36.3252 41.4447 43.2467V45.5403L83.7367 22.7008L83.8987 22.7895ZM41.4447 56.34L83.7367 33.5005L126.117 56.3844V54.0908L108.043 44.3354V41.6443L83.7316 28.5142L79.8341 30.6198V33.3109C67.025 40.2131 54.2277 47.1249 41.4422 54.0465L41.4447 56.34ZM41.4447 67.1749L83.7367 44.3354L122.547 65.2957L125.856 64.7544L100.063 50.8247V48.1275L83.7367 39.3094L79.8392 41.4134V44.1061L41.4472 64.8401L41.4447 67.1749ZM53.1396 69.3707L56.019 69.8416L83.7443 54.8676L107.582 67.7422L110.462 67.2713L87.6417 54.9455V52.2559L83.7443 50.1519L79.8367 52.2559V54.9471C70.9258 59.7473 62.0268 64.5552 53.1396 69.3707ZM41.4548 73.1627L83.0073 77.9609V75.2331L41.4548 68.4425V73.1627ZM140.58 77.0893V85.3799C142.23 85.597 143.871 85.8228 145.503 86.0573C147.083 86.2836 148.692 86.5236 150.33 86.7775V76.5236L140.58 77.0893ZM127.698 77.8371V83.8784C129.597 84.071 131.499 84.2749 133.403 84.49C135.277 84.7061 137.146 84.9334 139.01 85.172V77.1796L127.698 77.8371ZM84.5774 80.3401V81.6582C91.5265 81.6714 98.468 81.8503 105.402 82.1949C112.336 82.5394 119.244 83.0491 126.127 83.7239V77.9288L84.5774 80.3401ZM41.4447 79.0144L82.9972 81.4258V78.9242L41.4447 74.1214V79.0144ZM15.6719 87.0068V78.4716L1.02416 77.6215L1.1736 76.6811L15.6719 77.5221V71.152L0.953245 69.4517L1.24958 68.522L15.6846 70.1872V64.2315L0.915283 61.8186L1.32044 60.9012L15.6846 63.2483V54.1489H17.2572V63.5067L26.992 65.1V44.3843H28.5621V65.3569L39.8796 67.2055V24.3766L39.9607 24.3323C48.6065 19.6656 57.2506 14.9974 65.893 10.3276L83.7823 0.665527L83.9468 0.752685C94.178 6.28176 104.412 11.8098 114.65 17.3368L127.687 24.3705V64.4471L138.99 62.6061V44.3843H140.56V62.3477L150.31 60.756V54.1489H151.88V60.5006L166.247 58.152L166.652 59.0694L151.88 61.4823V67.4456L166.315 65.7789L166.611 66.7101L151.89 68.4089V75.4915L166.391 74.6505L166.54 75.5909L151.89 76.441V87.0328C154.184 87.3967 156.478 87.779 158.771 88.1796C161.121 88.5873 163.47 89.0186 165.819 89.4732C165.91 89.492 165.993 89.522 166.064 89.5612C166.135 89.6004 166.192 89.648 166.231 89.701C166.315 89.8076 166.347 89.9264 166.323 90.0435L166.292 90.1964L166.039 90.1659C139.279 87.0574 112.082 85.5247 84.8307 85.5894C57.0059 85.6576 29.252 87.2895 1.92827 90.464H1.8827C1.79352 90.469 1.70361 90.4617 1.61981 90.4426C1.536 90.4236 1.46046 90.3932 1.39896 90.3539C1.27564 90.2771 1.19358 90.1796 1.16346 90.0741L1.15078 90.0252C1.12876 89.9085 1.16124 89.7904 1.24451 89.6842C1.2845 89.6319 1.34137 89.5849 1.41182 89.5461C1.48227 89.5072 1.56485 89.4772 1.65474 89.4579C4.01836 89.0053 6.38199 88.5721 8.74561 88.1582C11.0552 87.7576 13.364 87.3748 15.6719 87.0099V87.0068ZM26.992 85.3631V79.1245L17.2445 78.5588V86.7591C18.8771 86.5053 20.481 86.2662 22.0562 86.042C23.7006 85.8085 25.3459 85.5833 26.992 85.3661V85.3631ZM39.8796 83.8661V79.8722L28.5747 79.2193V85.1658C30.4319 84.9273 32.3017 84.7005 34.1841 84.4854C36.0801 84.2662 37.9786 84.0608 39.8796 83.8692V83.8661ZM58.9034 82.3615C63.5631 82.0955 68.2279 81.9044 72.8978 81.7881L41.4447 79.964V83.7117C47.2541 83.147 53.0737 82.6979 58.9034 82.3646V82.3615Z"/>
</mask>
<path fill-rule="evenodd" clip-rule="evenodd" d="M26.992 71.4945V66.0817L17.2445 64.4884V70.3691L26.992 71.4945ZM28.5747 71.675L39.8923 72.9808V68.1872L28.5747 66.337V71.675ZM41.4574 34.739L83.7494 11.898L126.132 34.7895V32.4959L120.434 29.4195V26.7283L83.7342 6.91478L79.8367 9.01876V11.7114L41.4447 32.447L41.4574 34.739ZM39.8923 78.9288V73.9456L28.5747 72.6398V78.2698L39.8923 78.9288ZM17.2572 77.6169L27.0046 78.1826V72.4578L17.2572 71.3324V77.6169ZM140.588 69.7116V76.1444L150.338 75.5786V68.5832L140.588 69.7116ZM127.705 71.1994V76.889L139.018 76.2315V69.889L127.705 71.1994ZM140.588 63.3339V68.7468L150.338 67.6214V61.7361L140.588 63.3339ZM127.705 65.4395V70.2346L138.99 68.9227V63.5878L127.705 65.4395ZM84.5673 75.2101L126.117 70.4135V65.6933L84.5673 72.4823V75.2101ZM84.5673 76.1734V79.3845L126.117 76.9731V71.3768L84.5673 76.1734ZM83.8987 22.7895L126.117 45.5908V43.2972L114.232 36.8751V34.1855L83.7342 17.7145L79.8367 19.82V22.5112C67.0275 29.4133 54.2302 36.3252 41.4447 43.2467V45.5403L83.7367 22.7008L83.8987 22.7895ZM41.4447 56.34L83.7367 33.5005L126.117 56.3844V54.0908L108.043 44.3354V41.6443L83.7316 28.5142L79.8341 30.6198V33.3109C67.025 40.2131 54.2277 47.1249 41.4422 54.0465L41.4447 56.34ZM41.4447 67.1749L83.7367 44.3354L122.547 65.2957L125.856 64.7544L100.063 50.8247V48.1275L83.7367 39.3094L79.8392 41.4134V44.1061L41.4472 64.8401L41.4447 67.1749ZM53.1396 69.3707L56.019 69.8416L83.7443 54.8676L107.582 67.7422L110.462 67.2713L87.6417 54.9455V52.2559L83.7443 50.1519L79.8367 52.2559V54.9471C70.9258 59.7473 62.0268 64.5552 53.1396 69.3707ZM41.4548 73.1627L83.0073 77.9609V75.2331L41.4548 68.4425V73.1627ZM140.58 77.0893V85.3799C142.23 85.597 143.871 85.8228 145.503 86.0573C147.083 86.2836 148.692 86.5236 150.33 86.7775V76.5236L140.58 77.0893ZM127.698 77.8371V83.8784C129.597 84.071 131.499 84.2749 133.403 84.49C135.277 84.7061 137.146 84.9334 139.01 85.172V77.1796L127.698 77.8371ZM84.5774 80.3401V81.6582C91.5265 81.6714 98.468 81.8503 105.402 82.1949C112.336 82.5394 119.244 83.0491 126.127 83.7239V77.9288L84.5774 80.3401ZM41.4447 79.0144L82.9972 81.4258V78.9242L41.4447 74.1214V79.0144ZM15.6719 87.0068V78.4716L1.02416 77.6215L1.1736 76.6811L15.6719 77.5221V71.152L0.953245 69.4517L1.24958 68.522L15.6846 70.1872V64.2315L0.915283 61.8186L1.32044 60.9012L15.6846 63.2483V54.1489H17.2572V63.5067L26.992 65.1V44.3843H28.5621V65.3569L39.8796 67.2055V24.3766L39.9607 24.3323C48.6065 19.6656 57.2506 14.9974 65.893 10.3276L83.7823 0.665527L83.9468 0.752685C94.178 6.28176 104.412 11.8098 114.65 17.3368L127.687 24.3705V64.4471L138.99 62.6061V44.3843H140.56V62.3477L150.31 60.756V54.1489H151.88V60.5006L166.247 58.152L166.652 59.0694L151.88 61.4823V67.4456L166.315 65.7789L166.611 66.7101L151.89 68.4089V75.4915L166.391 74.6505L166.54 75.5909L151.89 76.441V87.0328C154.184 87.3967 156.478 87.779 158.771 88.1796C161.121 88.5873 163.47 89.0186 165.819 89.4732C165.91 89.492 165.993 89.522 166.064 89.5612C166.135 89.6004 166.192 89.648 166.231 89.701C166.315 89.8076 166.347 89.9264 166.323 90.0435L166.292 90.1964L166.039 90.1659C139.279 87.0574 112.082 85.5247 84.8307 85.5894C57.0059 85.6576 29.252 87.2895 1.92827 90.464H1.8827C1.79352 90.469 1.70361 90.4617 1.61981 90.4426C1.536 90.4236 1.46046 90.3932 1.39896 90.3539C1.27564 90.2771 1.19358 90.1796 1.16346 90.0741L1.15078 90.0252C1.12876 89.9085 1.16124 89.7904 1.24451 89.6842C1.2845 89.6319 1.34137 89.5849 1.41182 89.5461C1.48227 89.5072 1.56485 89.4772 1.65474 89.4579C4.01836 89.0053 6.38199 88.5721 8.74561 88.1582C11.0552 87.7576 13.364 87.3748 15.6719 87.0099V87.0068ZM26.992 85.3631V79.1245L17.2445 78.5588V86.7591C18.8771 86.5053 20.481 86.2662 22.0562 86.042C23.7006 85.8085 25.3459 85.5833 26.992 85.3661V85.3631ZM39.8796 83.8661V79.8722L28.5747 79.2193V85.1658C30.4319 84.9273 32.3017 84.7005 34.1841 84.4854C36.0801 84.2662 37.9786 84.0608 39.8796 83.8692V83.8661ZM58.9034 82.3615C63.5631 82.0955 68.2279 81.9044 72.8978 81.7881L41.4447 79.964V83.7117C47.2541 83.147 53.0737 82.6979 58.9034 82.3646V82.3615Z" stroke="#535353" stroke-width="1.796" mask="url(#path-1-inside-1_788_131)"/>
</g>
</svg>
