<svg width="189" height="91" viewBox="0 0 189 91" fill="none" xmlns="http://www.w3.org/2000/svg">
<path opacity="0.5" d="M66.7822 62.2523L67.3575 62.4209V61.8214V21.9998V21.1748L66.6647 21.6228L58.8141 26.6986L58.6089 26.8313V27.0756V59.5208V59.8571L58.9316 59.9517L66.7822 62.2523ZM78.6998 65.7366L79.2752 65.9054V65.3058V14.3027V13.4778L78.5824 13.9257L70.7318 19.0015L70.5266 19.1342V19.3786V63.0026V63.3387L70.8492 63.4334L78.6998 65.7366ZM90.6175 69.221L91.1929 69.3898V68.7901V6.60566V5.78069L90.5002 6.22861L82.6496 11.3044L82.4443 11.4371V11.6815V66.4869V66.8231L82.7669 66.9177L90.6175 69.221ZM38.8228 88.4137V88.8627H39.2718H90.7439H91.1929V88.4137V71.1523V70.8158L90.8699 70.7214L39.3978 55.6735L38.8228 55.5054V56.1044V88.4137ZM118.515 67.6L118.192 67.6945V68.0309V88.4137V88.8627H118.641H126.492H126.941V88.4137V65.7328V65.1336L126.366 65.3019L118.515 67.6ZM106.598 71.0843L106.275 71.1788V71.5153V88.4137V88.8627H106.724H114.574H115.023V88.4137V69.2171V68.6179L114.448 68.7862L106.598 71.0843ZM94.6773 74.5687L94.3545 74.6632V74.9996V88.4137V88.8627H94.8035H102.654H103.103V88.4137V72.7015V72.1022L102.528 72.2706L94.6773 74.5687ZM138.869 62.2472V61.6479L138.294 61.8163L130.443 64.1144L130.12 64.2089V64.5453V88.4137V88.8627H130.569H138.42H138.869V88.4137V62.2472ZM150.789 58.7629V58.1636L150.214 58.332L142.363 60.6301L142.041 60.7246V61.061V88.4137V88.8627H142.49H150.34H150.789V88.4137V58.7629ZM95.0069 25.7995L94.3545 25.4678V26.1997V72.6361V73.2359L94.93 73.0669L98.8604 71.9127L102.79 70.7587L102.791 70.7585L106.842 69.5724L114.693 67.2743L118.745 66.0881L126.595 63.79L126.918 63.6955V63.3591V42.2505V41.9745L126.672 41.8499L122.742 39.8596L114.752 35.8136L106.901 31.8381L102.85 29.7865L102.849 29.7862L95.0069 25.7995ZM130.688 62.6128L153.951 55.8122V88.4137V88.8627H154.4H188.509V90.0165H1.10086V88.8627H35.2123H35.6613V88.4137V53.1487L54.8622 58.763L55.4372 58.9311V58.332V26.6238L94.3545 1.49V23.5721V24.3028L95.0063 23.9726L95.0795 23.9356L130.113 41.6749V62.1818V62.7809L130.688 62.6128Z" stroke="#535353" stroke-width="0.898"/>
</svg>
