<svg width="204" height="91" viewBox="0 0 204 91" fill="none" xmlns="http://www.w3.org/2000/svg">
<g opacity="0.5">
<mask id="path-1-inside-1_788_137" fill="white">
<path d="M50.4873 69.6517V74.0653L44.2954 75.3179V71.3832L50.4873 69.6517ZM50.4873 75.76V81.1344L44.2954 81.7607V77.0126L50.4873 75.76ZM50.4873 82.7613V88.8607H44.2954V83.3876L50.4873 82.7613ZM83.1408 60.5283V67.4545L53.2578 73.5053V68.8795L83.1408 60.5283ZM83.1408 69.1506V77.8304L53.2578 80.8544V75.2L83.1408 69.1506ZM83.1408 79.4559V88.8607H53.2578V82.4813L83.1408 79.4559ZM85.8985 88.8607V79.1774L120.489 75.6715V88.8563L85.8985 88.8607ZM85.8985 77.5505V68.598L120.489 61.5982V74.0505L85.8985 77.5505ZM85.8985 66.8974V59.7561L120.489 50.0904V59.9035L85.8985 66.8974ZM123.24 75.8955L163.607 85.0543V88.8607H123.24V75.8955ZM123.24 61.9548L163.607 77.5003V83.3345L123.24 74.1788V61.9548ZM163.412 69.6753L163.607 69.7696V75.5802L123.24 60.0346V50.5119L163.412 69.6753ZM1.49431 90.4655H203.645V88.8607H166.372V85.6791L173.258 87.2412V85.5244L166.372 83.9623V78.5614L173.258 81.214V79.2982L166.372 76.6456V71.0885L173.258 74.3718V72.3087L166.372 69.0254V58.2824C166.372 45.1944 166.372 32.1064 166.372 19.0184V18.8504L166.134 18.7576C155.724 14.6313 145.312 10.5051 134.899 6.37889L120.489 0.665527V18.2388L89.3149 26.9482V31.1672L120.489 22.4579V23.7989L89.3047 32.5082V36.7273L120.479 28.0166V29.3605L89.3047 38.0713V42.2903L120.479 33.5796V34.925L89.3047 43.6343V47.8534L120.479 39.1426V40.4866L89.3047 49.1974V53.4194L120.479 44.7086V46.0511L89.3047 54.7604V57.0298L85.8884 57.9848V50.4058L85.9417 32.3093C76.1141 29.2461 66.2889 26.1784 56.4664 23.1063V66.2077L53.2426 67.1081V24.9616L41.5324 30.0502V70.3767L31.7597 73.1074V74.8758L41.5324 72.1466V75.869L31.7597 77.8467V79.5414L41.5324 77.5637V82.0318L31.7597 83.0207V84.6417L41.5324 83.6528V88.8475H0.95752V90.4523L1.49431 90.4655Z"/>
</mask>
<path d="M50.4873 69.6517V74.0653L44.2954 75.3179V71.3832L50.4873 69.6517ZM50.4873 75.76V81.1344L44.2954 81.7607V77.0126L50.4873 75.76ZM50.4873 82.7613V88.8607H44.2954V83.3876L50.4873 82.7613ZM83.1408 60.5283V67.4545L53.2578 73.5053V68.8795L83.1408 60.5283ZM83.1408 69.1506V77.8304L53.2578 80.8544V75.2L83.1408 69.1506ZM83.1408 79.4559V88.8607H53.2578V82.4813L83.1408 79.4559ZM85.8985 88.8607V79.1774L120.489 75.6715V88.8563L85.8985 88.8607ZM85.8985 77.5505V68.598L120.489 61.5982V74.0505L85.8985 77.5505ZM85.8985 66.8974V59.7561L120.489 50.0904V59.9035L85.8985 66.8974ZM123.24 75.8955L163.607 85.0543V88.8607H123.24V75.8955ZM123.24 61.9548L163.607 77.5003V83.3345L123.24 74.1788V61.9548ZM163.412 69.6753L163.607 69.7696V75.5802L123.24 60.0346V50.5119L163.412 69.6753ZM1.49431 90.4655H203.645V88.8607H166.372V85.6791L173.258 87.2412V85.5244L166.372 83.9623V78.5614L173.258 81.214V79.2982L166.372 76.6456V71.0885L173.258 74.3718V72.3087L166.372 69.0254V58.2824C166.372 45.1944 166.372 32.1064 166.372 19.0184V18.8504L166.134 18.7576C155.724 14.6313 145.312 10.5051 134.899 6.37889L120.489 0.665527V18.2388L89.3149 26.9482V31.1672L120.489 22.4579V23.7989L89.3047 32.5082V36.7273L120.479 28.0166V29.3605L89.3047 38.0713V42.2903L120.479 33.5796V34.925L89.3047 43.6343V47.8534L120.479 39.1426V40.4866L89.3047 49.1974V53.4194L120.479 44.7086V46.0511L89.3047 54.7604V57.0298L85.8884 57.9848V50.4058L85.9417 32.3093C76.1141 29.2461 66.2889 26.1784 56.4664 23.1063V66.2077L53.2426 67.1081V24.9616L41.5324 30.0502V70.3767L31.7597 73.1074V74.8758L41.5324 72.1466V75.869L31.7597 77.8467V79.5414L41.5324 77.5637V82.0318L31.7597 83.0207V84.6417L41.5324 83.6528V88.8475H0.95752V90.4523L1.49431 90.4655Z" stroke="#535353" stroke-width="1.796" mask="url(#path-1-inside-1_788_137)"/>
</g>
</svg>
