<svg width="187" height="91" viewBox="0 0 187 91" fill="none" xmlns="http://www.w3.org/2000/svg">
<path opacity="0.5" d="M114.81 88.5473V88.9963H115.259H127.622H128.071V88.5473V56.5053V56.1936L127.779 56.0847L115.416 51.4724L114.81 51.2463V51.8931V88.5473ZM37.8789 13.615V47.0402V47.687L38.4849 47.4609L43.9804 45.4101L44.2724 45.3011V44.9894V11.2296L48.8697 9.51391V42.9386V43.5852L49.4756 43.3593L54.9711 41.3101L55.2632 41.2012V40.8894V7.12808L59.8606 5.41376V38.8386V39.4854L60.4665 39.2593L65.962 37.2085L66.254 37.0995V36.7878V3.02784L68.7071 2.11082L68.7074 2.11069L71.2978 1.14476L106.849 14.414L106.849 14.414L109.304 15.3297V17.0687V32.2294L107.475 31.5422V16.0441V15.7324L107.183 15.6235L71.4752 2.29568L70.8692 2.06949V2.71634V88.5473V88.9963H71.3182H76.8137H77.2627V88.5473V41.5344L81.86 43.2487V88.5457V88.9947H82.309H87.7792H88.2282V88.5457V45.6362L92.8256 47.3519V88.5473V88.9963H93.2746H98.7675H99.2165V88.5473V49.7377L103.816 51.4536V88.5473V88.9963H104.265H109.758H110.207V88.5473V49.8423V38.0684L145.017 25.0758V88.5473V88.9963H145.466H150.587H151.036V88.5473V45.1665L159.067 48.1637V88.5457V88.9947H159.516H185.762V90.0165H1.09402V88.9947H27.3371H27.7861V88.5457V51.4534L32.9821 49.5116L33.2739 49.4025V49.091V15.3298L37.8789 13.615Z" stroke="#535353" stroke-width="0.898"/>
</svg>
